<svg xmlns="http://www.w3.org/2000/svg" version="1.1" xmlns:xlink="http://www.w3.org/1999/xlink" xmlns:svgjs="http://svgjs.dev/svgjs" width="1000" height="1000" viewBox="0 0 1000 1000"><rect width="1000" height="1000" fill="#61777f"></rect><g transform="matrix(0.7,0,0,0.7,149.57575757575756,282.1265587044535)"><svg viewBox="0 0 396 247" data-background-color="#61777f" preserveAspectRatio="xMidYMid meet" height="623" width="1000" xmlns="http://www.w3.org/2000/svg" xmlns:xlink="http://www.w3.org/1999/xlink"><g id="tight-bounds" transform="matrix(1,0,0,1,0.2400000000000091,-0.09999999999999432)"><svg viewBox="0 0 395.52 247.2" height="247.2" width="395.52"><g><svg></svg></g><g><svg viewBox="0 0 395.52 247.2" height="247.2" width="395.52"><g transform="matrix(1,0,0,1,39.55199999999999,103.12127495493293)"><svg viewBox="0 0 316.416 40.95745009013414" height="40.95745009013414" width="316.416"><g><svg viewBox="0 0 316.416 40.95745009013414" height="40.95745009013414" width="316.416"><g><svg viewBox="0 0 316.416 40.95745009013414" height="40.95745009013414" width="316.416"><g><svg viewBox="0 0 316.416 40.95745009013414" height="40.95745009013414" width="316.416"><g><svg viewBox="0 0 316.416 40.95745009013414" height="40.95745009013414" width="316.416"><g><svg viewBox="0 0 316.416 40.95745009013414" height="40.95745009013414" width="316.416"><g transform="matrix(1,0,0,1,0,0)"><svg width="316.416" viewBox="0.25 -36.389129638671875 284.57000732421875 36.83913040161133" height="40.95745009013414" data-palette-color="#000000"><path d="M4.9-17.25Q4.9-12.4 5.63-9.75 6.35-7.1 7.58-6.13 8.8-5.15 10.6-5.15L10.6-5.15Q12.6-5.15 13.88-6.23 15.15-7.3 15.7-8.8 16.25-10.3 16.25-11.65L16.25-11.65 16.4-25.45Q16.3-26.95 16.3-28.75L16.3-28.75 16.35-33.6Q16.25-34.85 16.6-35.18 16.95-35.5 17.6-35.5L17.6-35.5Q17.9-35.55 18.55-35.63 19.2-35.7 19.75-35.7L19.75-35.7Q20.3-35.7 20.55-35.65L20.55-35.65Q21.4-35.6 21.6-35.33 21.8-35.05 21.75-34L21.75-34 21.65-18.7Q21.6-18.35 21.63-17.93 21.65-17.5 21.65-17.15L21.65-17.15 21.65-15.55Q21.65 0.35 12.2 0.35L12.2 0.35Q7.25 0.35 4.58-2.13 1.9-4.6 1.07-7.48 0.25-10.35 0.25-12.35L0.25-12.35 0.3-16.65Q0.35-17.6 0.35-18.8L0.35-18.8Q0.35-19.45 0.5-19.58 0.65-19.7 1.1-19.65L1.1-19.65Q1.65-19.65 4.2-20L4.2-20Q5.1-20.05 5.1-19.1L5.1-19.1Q5.1-18.8 5-18.25 4.9-17.7 4.9-17.25L4.9-17.25ZM48.65-33.25L48.65-32.7Q48.65-31.55 48.45-31.55L48.45-31.55Q48.15-31.55 47.77-31.63 47.4-31.7 46.85-31.7L46.85-31.7 38.85-31.7 32.65-31.75Q32.35-31.75 30.4-31.6L30.4-31.6 29.25-31.5 29.15-30.15Q29.1-29.4 29.1-27.8L29.1-27.8Q29.1-27 29.2-25.7L29.2-25.7Q29.3-24.5 29.3-23.95L29.3-23.95 29.3-21.95Q29.3-21.15 29.35-20.7L29.35-20.7Q29.8-20.65 30.7-20.65L30.7-20.65 32.7-20.65Q33-20.65 33.9-20.75L33.9-20.75Q35.2-20.85 36.15-20.85L36.15-20.85Q36.55-20.85 38.95-20.7L38.95-20.7 40.05-20.65Q40.45-20.65 41.2-20.73 41.95-20.8 42.65-20.8L42.65-20.8 44.3-20.75Q45.6-20.65 46.1-20.65L46.1-20.65Q46.65-20.65 46.85-20.7L46.85-20.7 47.15-20.75Q47.5-20.75 47.65-20.53 47.8-20.3 47.75-20.1L47.75-20.1Q47.7-19.75 47.7-19.23 47.7-18.7 47.65-18.3L47.65-18.3Q47.6-17.9 47.5-17.82 47.4-17.75 46.9-17.75L46.9-17.75 44.9-17.95Q41.15-18.3 40-18.3L40-18.3Q35.75-18.3 33.75-18.15L33.75-18.15Q32.95-18.05 32-18.05 31.05-18.05 30.8-18.05L30.8-18.05Q29.85-18.05 29.4-18.1L29.4-18.1 29.25-17.3Q29.15-16.4 29.15-15.7L29.15-15.7Q29.15-15.1 29.25-14.3L29.25-14.3Q29.35-13.5 29.35-12.9L29.35-12.9 29.4-6.95 29.35-4.45Q29.3-4 29.3-3.2L29.3-3.2Q29.95-3.15 31.2-3.15L31.2-3.15Q32.25-3.1 34.45-3.1L34.45-3.1 37.15-3.05Q38-3 39.75-3L39.75-3Q40.8-3 42.5-3.1L42.5-3.1 44.6-3.15Q45.8-3.15 46.6-3.1 47.4-3.05 47.8-3.05L47.8-3.05Q48.2-3.05 48.27-2.9 48.35-2.75 48.35-2.25L48.35-2.25Q48.35-1.9 48.3-1.53 48.25-1.15 48.25-0.7L48.25-0.7Q48.25-0.35 48-0.23 47.75-0.1 47.2-0.1L47.2-0.1Q46.65-0.1 46.3-0.15L46.3-0.15Q44.95-0.3 40.85-0.3L40.85-0.3Q38.35-0.3 37.25-0.25L37.25-0.25Q36.4-0.2 34.45-0.2L34.45-0.2 29.8-0.25Q29-0.3 27.9-0.3L27.9-0.3Q27.2-0.3 26.97-0.48 26.75-0.65 26.75-1.05L26.75-1.05 26.8-1.85Q26.85-2.05 26.85-2.3L26.85-2.3Q26.85-2.45 26.8-3.03 26.75-3.6 26.75-5.15L26.75-5.15Q26.75-6.65 26.65-10.05L26.65-10.05Q26.5-12.85 26.5-15.45L26.5-15.45Q26.5-16.55 26.75-21.8L26.75-21.8Q26.8-22.85 26.85-23.9 26.9-24.95 26.9-25.8L26.9-25.8Q26.9-31.6 26.75-33.45L26.75-33.45Q26.6-34.65 28.2-34.65L28.2-34.65Q28.6-34.65 29.5-34.55L29.5-34.55Q30.3-34.45 30.7-34.45L30.7-34.45 33.85-34.55Q37.25-34.75 39.1-34.75L39.1-34.75Q41.25-34.75 45.15-34.65L45.15-34.65Q46.4-34.6 47.8-34.6L47.8-34.6Q48.4-34.6 48.55-34.3 48.7-34 48.67-33.68 48.65-33.35 48.65-33.25L48.65-33.25ZM63.84-35.25Q68.19-35.25 70.3-33.55 72.39-31.85 72.5-31.75L72.5-31.75Q73-31.4 73-31.05L73-31.05Q73-30.85 72.8-30.65L72.8-30.65Q72.64-30.45 72.19-29.8 71.75-29.15 71.5-29.15L71.5-29.15Q71.25-29.15 70.84-29.4L70.84-29.4 70.5-29.7Q66.69-32.45 63.99-32.45L63.99-32.45Q60.55-32.45 58.77-30.88 56.99-29.3 56.99-26.9L56.99-26.9Q56.99-24.85 58.47-23.4 59.95-21.95 62.34-20.65L62.34-20.65Q63.05-20.35 63.8-20.1L63.8-20.1Q66.3-19.15 68.17-18.07 70.05-17 71.55-14.83 73.05-12.65 73.05-9.35L73.05-9.35Q73.05-3.7 69.19-1.63 65.34 0.45 60.59 0.45L60.59 0.45Q57.84 0.45 55.62-0.8 53.39-2.05 52.45-3L52.45-3Q51.95-3.45 52.2-3.9L52.2-3.9Q52.24-4 52.62-4.7 52.99-5.4 53.3-5.4L53.3-5.4 53.39-5.4Q53.55-5.4 53.67-5.33 53.8-5.25 53.97-5.05 54.14-4.85 54.39-4.6L54.39-4.6Q55.05-3.95 56.95-3.13 58.84-2.3 60.09-2.3L60.09-2.3Q62.74-2.3 65.14-3.43 67.55-4.55 67.55-8.2L67.55-8.2Q67.55-9.75 66.17-10.9 64.8-12.05 61.89-13.6L61.89-13.6 59.74-14.8Q56.24-16.8 54.27-19.1 52.3-21.4 52.3-25.15L52.3-25.15Q52.3-28.25 54.07-30.55 55.84-32.85 58.52-34.05 61.2-35.25 63.84-35.25L63.84-35.25ZM88.99-35.25Q93.34-35.25 95.44-33.55 97.54-31.85 97.64-31.75L97.64-31.75Q98.14-31.4 98.14-31.05L98.14-31.05Q98.14-30.85 97.94-30.65L97.94-30.65Q97.79-30.45 97.34-29.8 96.89-29.15 96.64-29.15L96.64-29.15Q96.39-29.15 95.99-29.4L95.99-29.4 95.64-29.7Q91.84-32.45 89.14-32.45L89.14-32.45Q85.69-32.45 83.92-30.88 82.14-29.3 82.14-26.9L82.14-26.9Q82.14-24.85 83.62-23.4 85.09-21.95 87.49-20.65L87.49-20.65Q88.19-20.35 88.94-20.1L88.94-20.1Q91.44-19.15 93.32-18.07 95.19-17 96.69-14.83 98.19-12.65 98.19-9.35L98.19-9.35Q98.19-3.7 94.34-1.63 90.49 0.45 85.74 0.45L85.74 0.45Q82.99 0.45 80.77-0.8 78.54-2.05 77.59-3L77.59-3Q77.09-3.45 77.34-3.9L77.34-3.9Q77.39-4 77.77-4.7 78.14-5.4 78.44-5.4L78.44-5.4 78.54-5.4Q78.69-5.4 78.82-5.33 78.94-5.25 79.12-5.05 79.29-4.85 79.54-4.6L79.54-4.6Q80.19-3.95 82.09-3.13 83.99-2.3 85.24-2.3L85.24-2.3Q87.89-2.3 90.29-3.43 92.69-4.55 92.69-8.2L92.69-8.2Q92.69-9.75 91.32-10.9 89.94-12.05 87.04-13.6L87.04-13.6 84.89-14.8Q81.39-16.8 79.42-19.1 77.44-21.4 77.44-25.15L77.44-25.15Q77.44-28.25 79.22-30.55 80.99-32.85 83.67-34.05 86.34-35.25 88.99-35.25L88.99-35.25ZM124.49-33.25L124.49-32.7Q124.49-31.55 124.29-31.55L124.29-31.55Q123.99-31.55 123.62-31.63 123.24-31.7 122.69-31.7L122.69-31.7 114.69-31.7 108.49-31.75Q108.19-31.75 106.24-31.6L106.24-31.6 105.09-31.5 104.99-30.15Q104.94-29.4 104.94-27.8L104.94-27.8Q104.94-27 105.04-25.7L105.04-25.7Q105.14-24.5 105.14-23.95L105.14-23.95 105.14-21.95Q105.14-21.15 105.19-20.7L105.19-20.7Q105.64-20.65 106.54-20.65L106.54-20.65 108.54-20.65Q108.84-20.65 109.74-20.75L109.74-20.75Q111.04-20.85 111.99-20.85L111.99-20.85Q112.39-20.85 114.79-20.7L114.79-20.7 115.89-20.65Q116.29-20.65 117.04-20.73 117.79-20.8 118.49-20.8L118.49-20.8 120.14-20.75Q121.44-20.65 121.94-20.65L121.94-20.65Q122.49-20.65 122.69-20.7L122.69-20.7 122.99-20.75Q123.34-20.75 123.49-20.53 123.64-20.3 123.59-20.1L123.59-20.1Q123.54-19.75 123.54-19.23 123.54-18.7 123.49-18.3L123.49-18.3Q123.44-17.9 123.34-17.82 123.24-17.75 122.74-17.75L122.74-17.75 120.74-17.95Q116.99-18.3 115.84-18.3L115.84-18.3Q111.59-18.3 109.59-18.15L109.59-18.15Q108.79-18.05 107.84-18.05 106.89-18.05 106.64-18.05L106.64-18.05Q105.69-18.05 105.24-18.1L105.24-18.1 105.09-17.3Q104.99-16.4 104.99-15.7L104.99-15.7Q104.99-15.1 105.09-14.3L105.09-14.3Q105.19-13.5 105.19-12.9L105.19-12.9 105.24-6.95 105.19-4.45Q105.14-4 105.14-3.2L105.14-3.2Q105.79-3.15 107.04-3.15L107.04-3.15Q108.09-3.1 110.29-3.1L110.29-3.1 112.99-3.05Q113.84-3 115.59-3L115.59-3Q116.64-3 118.34-3.1L118.34-3.1 120.44-3.15Q121.64-3.15 122.44-3.1 123.24-3.05 123.64-3.05L123.64-3.05Q124.04-3.05 124.12-2.9 124.19-2.75 124.19-2.25L124.19-2.25Q124.19-1.9 124.14-1.53 124.09-1.15 124.09-0.7L124.09-0.7Q124.09-0.35 123.84-0.23 123.59-0.1 123.04-0.1L123.04-0.1Q122.49-0.1 122.14-0.15L122.14-0.15Q120.79-0.3 116.69-0.3L116.69-0.3Q114.19-0.3 113.09-0.25L113.09-0.25Q112.24-0.2 110.29-0.2L110.29-0.2 105.64-0.25Q104.84-0.3 103.74-0.3L103.74-0.3Q103.04-0.3 102.82-0.48 102.59-0.65 102.59-1.05L102.59-1.05 102.64-1.85Q102.69-2.05 102.69-2.3L102.69-2.3Q102.69-2.45 102.64-3.03 102.59-3.6 102.59-5.15L102.59-5.15Q102.59-6.65 102.49-10.05L102.49-10.05Q102.34-12.85 102.34-15.45L102.34-15.45Q102.34-16.55 102.59-21.8L102.59-21.8Q102.64-22.85 102.69-23.9 102.74-24.95 102.74-25.8L102.74-25.8Q102.74-31.6 102.59-33.45L102.59-33.45Q102.44-34.65 104.04-34.65L104.04-34.65Q104.44-34.65 105.34-34.55L105.34-34.55Q106.14-34.45 106.54-34.45L106.54-34.45 109.69-34.55Q113.09-34.75 114.94-34.75L114.94-34.75Q117.09-34.75 120.99-34.65L120.99-34.65Q122.24-34.6 123.64-34.6L123.64-34.6Q124.24-34.6 124.39-34.3 124.54-34 124.52-33.68 124.49-33.35 124.49-33.25L124.49-33.25ZM152.74-16.55L152.94-17.2 153.44-18.6Q153.78-19.45 154.63-22.7L154.63-22.7 154.99-24Q155.19-24.75 155.88-26.85 156.59-28.95 156.99-30.1L156.99-30.1Q157.24-30.65 157.59-31.75L157.59-31.75Q158.88-35.05 159.49-35.05L159.49-35.05Q159.84-35.05 159.94-34.95 160.03-34.85 160.09-34.6 160.13-34.35 160.19-34.2L160.19-34.2Q160.28-33.8 160.44-33.27 160.59-32.75 160.69-32.1L160.69-32.1Q162.69-26.9 163.09-25.9L163.09-25.9 164.63-22.55 165.53-20.55Q165.63-20.85 165.74-21L165.74-21 166.24-22.25Q166.34-22.55 166.63-24.3L166.63-24.3Q166.99-26.5 167.24-27.45L167.24-27.45Q167.49-28.4 168.13-30.2L168.13-30.2Q168.88-32.4 168.99-33.15L168.99-33.15Q169.19-34.9 170.19-34.9L170.19-34.9Q170.99-35.1 171.99-35.1L171.99-35.1Q172.49-35.1 172.63-35.05L172.63-35.05Q173.24-35.05 173.24-34.6L173.24-34.6 173.13-34 172.69-32.6Q172.34-31.25 172.09-30.55L172.09-30.55Q171.84-29.65 171.49-28.4 171.13-27.15 170.78-25.85L170.78-25.85Q170.03-22.9 169.49-21.05L169.49-21.05Q169.19-19.85 168.84-17.53 168.49-15.2 168.49-14.8L168.49-14.8Q168.49-13.6 167.78-11.9L167.78-11.9Q167.53-11.15 167.03-8.6 166.53-6.05 166.38-5.15L166.38-5.15Q165.88-1.85 165.69-1.5L165.69-1.5Q165.63-1.2 165.56-0.78 165.49-0.35 165.41-0.15 165.34 0.05 165.19 0.05L165.19 0.05Q164.78 0.05 164.61-0.15 164.44-0.35 164.13-1L164.13-1Q163.74-1.5 162.09-5.85L162.09-5.85Q161.74-6.75 159.99-11.7L159.99-11.7Q159.69-12.75 158.99-14.55L158.99-14.55 158.28-16.4 157.59-15Q157.09-13.9 156.09-11.3L156.09-11.3 155.69-10.3Q155.09-8.55 153.78-3.15L153.78-3.15 153.44-1.7Q153.28-1.1 152.96-0.53 152.63 0.05 152.38 0.05L152.38 0.05Q152.03 0.05 151.86-0.2 151.69-0.45 151.53-1L151.53-1Q151.34-1.4 150.84-3.85L150.84-3.85Q150.63-4.65 150.24-6.28 149.84-7.9 149.63-8.4L149.63-8.4Q149.19-9.5 148.59-11.63 147.99-13.75 147.88-14.15L147.88-14.15Q147.49-15.1 145.59-22.2L145.59-22.2Q145.28-23.15 145.03-24.08 144.78-25 144.59-25.7L144.59-25.7 143.63-29.25 142.53-33.3Q142.34-33.95 142.34-34.3L142.34-34.3Q142.34-34.45 142.44-34.5 142.53-34.55 142.69-34.55L142.69-34.55 144.24-34.55Q145.09-34.55 145.44-34.6L145.44-34.6 145.99-34.7Q146.49-34.85 146.66-34.55 146.84-34.25 147.03-33.3L147.03-33.3Q147.13-32.9 148.03-29.78 148.94-26.65 150.13-23.65L150.13-23.65Q151.09-20.7 151.88-18.75L151.88-18.75 152.74-16.55ZM203.28-1Q203.53-0.5 203.53-0.35L203.53-0.35Q203.53 0.05 202.63 0.05L202.63 0.05 199.03 0.05Q198.83 0.05 198.63-0.3 198.43-0.65 198.28-1 198.13-1.35 198.03-1.6L198.03-1.6Q197.78-2.1 197.11-3.9 196.43-5.7 196.08-6.75L196.08-6.75Q195.93-7.25 195.48-8.22 195.03-9.2 194.83-9.6L194.83-9.6Q194.63-10.2 194.46-10.4 194.28-10.6 193.93-10.6L193.93-10.6Q193.58-10.6 193.06-10.55 192.53-10.5 191.93-10.45L191.93-10.45Q191.53-10.35 189.43-10.35L189.43-10.35Q187.98-10.35 186.58-10.25L186.58-10.25Q186.13-10.2 184.98-10.2L184.98-10.2 182.33-10.25Q182.08-10.25 181.96-10.05 181.83-9.85 181.78-9.58 181.73-9.3 181.68-9.15L181.68-9.15 181.38-7.9Q181.23-7.2 181.01-6.28 180.78-5.35 180.63-4.55L180.63-4.55 180.08-2.4 179.68-0.95Q179.53-0.35 179.41-0.18 179.28 0 179.03 0L179.03 0 176.08 0Q175.83 0 175.83-0.2L175.83-0.2Q175.83-0.3 176.03-0.9L176.03-0.9Q176.43-1.85 176.73-2.8L176.73-2.8Q178.58-9 178.93-10.9L178.93-10.9Q179.38-13.4 180.78-17.35L180.78-17.35Q181.23-19.05 181.63-20.45L181.63-20.45Q181.78-21.15 182.08-22.15L182.08-22.15Q183.03-25.65 183.98-28.7L183.98-28.7 185.23-32.7Q185.63-34.25 186.23-35.9L186.23-35.9Q186.53-36.65 186.93-36.25L186.93-36.25Q187.23-36.05 187.38-35.55 187.53-35.05 187.58-34.85L187.58-34.85Q187.73-34.25 190.23-28.85L190.23-28.85Q191.23-26.8 192.38-23.5L192.38-23.5Q192.88-22.05 195.13-17.25L195.13-17.25Q196.28-14.9 196.63-14L196.63-14Q197.43-12.25 200.93-5.5L200.93-5.5 201.53-4.25Q202.68-1.7 203.28-1L203.28-1ZM190.18-17.5Q190.53-17.55 190.78-17.55 191.03-17.55 191.18-17.6 191.33-17.65 191.33-17.75L191.33-17.75Q191.33-17.85 191.18-18.15L191.18-18.15Q190.93-18.6 190.03-20.68 189.13-22.75 188.78-23.8L188.78-23.8Q188.28-25 188.01-25.8 187.73-26.6 187.58-26.9L187.58-26.9Q187.48-27.15 187.36-27.4 187.23-27.65 187.13-27.8 187.03-27.95 186.93-27.95L186.93-27.95Q186.78-27.95 186.61-27.2 186.43-26.45 186.33-26.05L186.33-26.05Q185.43-23.15 185.03-21.65L185.03-21.65Q184.83-20.9 184.46-19.83 184.08-18.75 183.93-18.35L183.93-18.35Q183.78-17.85 183.78-17.55L183.78-17.55Q183.78-17.25 184.23-17.25L184.23-17.25Q185.28-17.25 187.46-17.32 189.63-17.4 190.18-17.5L190.18-17.5ZM211.48-34.6L211.38-31.7Q211.13-24.7 211.13-24.1L211.13-24.1 211.08-16.95Q211.08-16 211.13-15.3L211.13-15.3 211.18-12.3Q211.18-11.25 211.13-11L211.13-11Q211.08-10.7 211.11-10.45 211.13-10.2 211.13-10.1L211.13-10.1Q211.13-9.9 211.18-9.85L211.18-9.85 212.38-9.75Q213.98-9.65 215.03-9.7L215.03-9.7 224.28-9.8Q224.28-9.8 229.53-9.65L229.53-9.65 231.88-9.6Q232.43-9.55 232.43-9.3L232.43-9.3Q232.43-9.2 232.38-9.05 232.33-8.9 232.33-8.75L232.33-8.75 232.33-6.45Q232.33-5.55 232.63-2.65L232.63-2.65 232.83-0.55 232.88-0.3Q232.88-0.05 232.63 0.03 232.38 0.1 231.73 0.1L231.73 0.1 228.08 0.05 221.88-0.05Q220.63-0.05 218.38 0.1L218.38 0.1Q217.38 0.15 216.16 0.2 214.93 0.25 213.73 0.25L213.73 0.25 212.88 0.2Q212.58 0.15 211.73 0.15L211.73 0.15 209.48 0.2Q208.88 0.25 207.93 0.25L207.93 0.25Q207.28 0.25 207.16 0.08 207.03-0.1 207.06-0.45 207.08-0.8 207.08-1.05L207.08-1.05Q207.08-2.15 207.23-4.85L207.23-4.85 207.38-10 207.28-12.35Q207.23-13.05 207.18-14.03 207.13-15 207.13-16.05L207.13-16.05Q207.13-14.35 207.43-19.48 207.73-24.6 207.73-25.8L207.73-25.8 207.68-31.45 207.58-34.65 207.58-34.7Q207.58-35.1 208.13-35.1L208.13-35.1 208.83-35.05Q209.08-35.05 209.48-35.02 209.88-35 210.73-35L210.73-35 211.18-35Q211.48-35 211.48-34.6L211.48-34.6ZM240.43-34.6L240.33-31.7Q240.08-24.7 240.08-24.1L240.08-24.1 240.03-16.95Q240.03-16 240.08-15.3L240.08-15.3 240.13-12.3Q240.13-11.25 240.08-11L240.08-11Q240.03-10.7 240.05-10.45 240.08-10.2 240.08-10.1L240.08-10.1Q240.08-9.9 240.13-9.85L240.13-9.85 241.33-9.75Q242.93-9.65 243.98-9.7L243.98-9.7 253.23-9.8Q253.23-9.8 258.48-9.65L258.48-9.65 260.83-9.6Q261.38-9.55 261.38-9.3L261.38-9.3Q261.38-9.2 261.33-9.05 261.28-8.9 261.28-8.75L261.28-8.75 261.28-6.45Q261.28-5.55 261.58-2.65L261.58-2.65 261.78-0.55 261.83-0.3Q261.83-0.05 261.58 0.03 261.33 0.1 260.68 0.1L260.68 0.1 257.03 0.05 250.83-0.05Q249.58-0.05 247.33 0.1L247.33 0.1Q246.33 0.15 245.1 0.2 243.88 0.25 242.68 0.25L242.68 0.25 241.83 0.2Q241.53 0.15 240.68 0.15L240.68 0.15 238.43 0.2Q237.83 0.25 236.88 0.25L236.88 0.25Q236.23 0.25 236.1 0.08 235.98-0.1 236-0.45 236.03-0.8 236.03-1.05L236.03-1.05Q236.03-2.15 236.18-4.85L236.18-4.85 236.33-10 236.23-12.35Q236.18-13.05 236.13-14.03 236.08-15 236.08-16.05L236.08-16.05Q236.08-14.35 236.38-19.48 236.68-24.6 236.68-25.8L236.68-25.8 236.63-31.45 236.53-34.65 236.53-34.7Q236.53-35.1 237.08-35.1L237.08-35.1 237.78-35.05Q238.03-35.05 238.43-35.02 238.83-35 239.68-35L239.68-35 240.13-35Q240.43-35 240.43-34.6L240.43-34.6ZM275.63-35.25Q279.98-35.25 282.07-33.55 284.18-31.85 284.27-31.75L284.27-31.75Q284.77-31.4 284.77-31.05L284.77-31.05Q284.77-30.85 284.57-30.65L284.57-30.65Q284.43-30.45 283.98-29.8 283.52-29.15 283.27-29.15L283.27-29.15Q283.02-29.15 282.63-29.4L282.63-29.4 282.27-29.7Q278.48-32.45 275.77-32.45L275.77-32.45Q272.32-32.45 270.55-30.88 268.77-29.3 268.77-26.9L268.77-26.9Q268.77-24.85 270.25-23.4 271.73-21.95 274.13-20.65L274.13-20.65Q274.82-20.35 275.57-20.1L275.57-20.1Q278.07-19.15 279.95-18.07 281.82-17 283.32-14.83 284.82-12.65 284.82-9.35L284.82-9.35Q284.82-3.7 280.98-1.63 277.13 0.45 272.38 0.45L272.38 0.45Q269.63 0.45 267.4-0.8 265.18-2.05 264.23-3L264.23-3Q263.73-3.45 263.98-3.9L263.98-3.9Q264.02-4 264.4-4.7 264.77-5.4 265.07-5.4L265.07-5.4 265.18-5.4Q265.32-5.4 265.45-5.33 265.57-5.25 265.75-5.05 265.93-4.85 266.18-4.6L266.18-4.6Q266.82-3.95 268.73-3.13 270.63-2.3 271.88-2.3L271.88-2.3Q274.52-2.3 276.93-3.43 279.32-4.55 279.32-8.2L279.32-8.2Q279.32-9.75 277.95-10.9 276.57-12.05 273.68-13.6L273.68-13.6 271.52-14.8Q268.02-16.8 266.05-19.1 264.07-21.4 264.07-25.15L264.07-25.15Q264.07-28.25 265.85-30.55 267.63-32.85 270.3-34.05 272.98-35.25 275.63-35.25L275.63-35.25Z" opacity="1" transform="matrix(1,0,0,1,0,0)" fill="#000000" class="undefined-text-0" data-fill-palette-color="primary" id="text-0"></path></svg></g></svg></g></svg></g></svg></g></svg></g></svg></g></svg></g><g mask="url(#22203962-a184-4a03-8696-d4975e919b4c)"><g transform="matrix(5.004081632653061, 0, 0, 5.004081632653061, 55.14367346938775, 1)"><svg xmlns="http://www.w3.org/2000/svg" xmlns:xlink="http://www.w3.org/1999/xlink" version="1.1" x="0" y="0" viewBox="0 0 57 49" enable-background="new 0 0 57 49" xml:space="preserve" height="49" width="57" class="icon-none" data-fill-palette-color="accent" id="none"><g fill="#d2d6dc" data-fill-palette-color="accent"><path d="M57 19V0H0v19h0v9h0v5h0v9h0v7h11 2 9 2 9 2 9 2 11 0v-7-2-5-2-5-2L57 19 57 19zM2 35h4v5H2V35zM8 35h3 2 4v5h-4-2H8V35zM2 21h4v5H2V21zM24 28h4 2 3v5h-3-2-4V28zM35 28h4 2 3v5h-3-2-4V28zM46 28h4 2 3v5h-3-2-4V28zM52 26v-5h3v5H52zM50 26h-4-2-3v-5h9V26zM39 26h-4-2-3v-5h9V26zM28 26h-4-2-3v-5h9V26zM17 26h-4-2H8v-5h9V26zM13 28h4 2 3v5h-3-2-4V28zM19 35h3 2 4v5h-4-2-3V35zM30 35h3 2 4v5h-4-2-3V35zM41 35h3 2 4v5h-4-2-3V35zM52 35h3v5h-3V35zM2 2h53v17h-3-2-9-2-9-2-9-2H8 6 2V2zM2 28h4 2 3v5H8 6 2V28zM2 47v-5h4 2 3v5H2zM13 47v-5h4 2 3v5H13zM24 47v-5h4 2 3v5H24zM35 47v-5h4 2 3v5H35zM46 47v-5h4 2 3v5H46z" fill="#d2d6dc" data-fill-palette-color="accent"></path><path d="M5 11c0.26 0 0.51-0.1 0.71-0.29l5-5c0.39-0.39 0.39-1.02 0-1.41s-1.02-0.39-1.41 0l-5 5c-0.39 0.39-0.39 1.02 0 1.41C4.49 10.9 4.75 11 5 11z" fill="#d2d6dc" data-fill-palette-color="accent"></path><path d="M18.71 3.29c-0.39-0.39-1.02-0.39-1.41 0l-13 13c-0.39 0.39-0.39 1.02 0 1.41C4.49 17.9 4.75 18 5 18s0.51-0.1 0.71-0.29l13-13C19.1 4.32 19.1 3.68 18.71 3.29z" fill="#d2d6dc" data-fill-palette-color="accent"></path></g></svg></g></g></svg></g><defs><mask id="40780524-eaca-47b6-8f1d-2271a6db495a"><rect width="640" height="400" fill="white"></rect><rect width="348.05760000000004" height="72.13344670331088" fill="black" x="145.97119999999998" y="163.93327664834456" id="transform-me" transform="matrix(1,0,0,1,-122.24000000000001,-76.4)"></rect></mask><mask id="0245f115-5cd5-4644-9499-6fa55f0f73d1"><rect width="640" height="400" fill="white"></rect><rect width="348.05760000000004" height="72.13344670331088" fill="black" x="145.97119999999998" y="163.93327664834456" id="transform-me" transform="matrix(1,0,0,1,-122.24000000000001,-76.4)"></rect></mask><mask id="352f431d-cf8c-4ea3-9700-c97916365672"><rect width="640" height="400" fill="white"></rect><rect width="348.05760000000004" height="72.13344670331088" fill="black" x="145.97119999999998" y="163.93327664834456" id="transform-me" transform="matrix(1,0,0,1,-122.24000000000001,-76.4)"></rect></mask><mask id="c7c05490-dad2-40d9-84bd-09957d363eba"><rect width="640" height="400" fill="white"></rect><rect width="348.05760000000004" height="72.13344670331088" fill="black" x="145.97119999999998" y="163.93327664834456" id="transform-me" transform="matrix(1,0,0,1,-122.24000000000001,-76.4)"></rect></mask><mask id="eb6e23b9-fb6b-44e2-8e60-7fb68ec78775"><rect width="640" height="400" fill="white"></rect><rect width="348.05760000000004" height="72.13344670331088" fill="black" x="145.97119999999998" y="163.93327664834456" id="transform-me" transform="matrix(1,0,0,1,-122.24000000000001,-76.4)"></rect></mask><mask id="27a15019-141f-4be2-8f1c-adbb06720d94"><rect width="640" height="400" fill="white"></rect><rect width="348.05760000000004" height="72.13344670331088" fill="black" x="145.97119999999998" y="163.93327664834456" id="transform-me" transform="matrix(1,0,0,1,-122.24000000000001,-76.4)"></rect></mask><mask id="dd66ea3f-a95a-41fd-bc99-2680ec796401"><rect width="640" height="400" fill="white"></rect><rect width="348.05760000000004" height="72.13344670331088" fill="black" x="145.97119999999998" y="163.93327664834456" id="transform-me" transform="matrix(1,0,0,1,-122.24000000000001,-76.4)"></rect></mask><mask id="a04f3b0b-6076-466a-a765-af89f7bc41ef"><rect width="640" height="400" fill="white"></rect><rect width="348.05760000000004" height="72.13344670331088" fill="black" x="145.97119999999998" y="163.93327664834456" id="transform-me" transform="matrix(1,0,0,1,-122.24000000000001,-76.4)"></rect></mask><mask id="40730ee9-7b7a-41ee-834d-e6bdcabd29a2"><rect width="640" height="400" fill="white"></rect><rect width="348.05760000000004" height="72.13344670331088" fill="black" x="145.97119999999998" y="163.93327664834456" id="transform-me" transform="matrix(1,0,0,1,-122.24000000000001,-76.4)"></rect></mask><mask id="14d28a43-e17b-4dcc-8e7a-acd3560a622a"><rect width="640" height="400" fill="white"></rect><rect width="348.05760000000004" height="72.13344670331088" fill="black" x="145.97119999999998" y="163.93327664834456" id="transform-me" transform="matrix(1,0,0,1,-122.24000000000001,-76.4)"></rect></mask><mask id="8ea1228d-89a5-4d1d-9bb5-d8624610238e"><rect width="640" height="400" fill="white"></rect><rect width="348.05760000000004" height="39.1690466577565" fill="black" x="145.97119999999998" y="180.41547667112175" id="transform-me" transform="matrix(1,0,0,1,-122.24000000000001,-76.4)"></rect></mask><mask id="6a5c31b8-1e71-483b-b51c-dc85c9bc091b"><rect width="640" height="400" fill="white"></rect><rect width="348.05760000000004" height="95.68201588345653" fill="black" x="145.97119999999998" y="152.15899205827174" id="transform-me" transform="matrix(1,0,0,1,-122.24000000000001,-76.4)"></rect></mask><mask id="a8d8b9dc-c06c-43c8-bf1d-86cfecd98bae"><rect width="640" height="400" fill="white"></rect><rect width="348.05760000000004" height="60.29559206509116" fill="black" x="145.97119999999998" y="169.85220396745441" id="transform-me" transform="matrix(1,0,0,1,-122.24000000000001,-76.4)"></rect></mask><mask id="639800b6-6dd9-41f5-b560-573beb1ec06e"><rect width="640" height="400" fill="white"></rect><rect width="435.072" height="75.36949008136394" fill="black" x="102.464" y="162.31525495931803" id="transform-me" transform="matrix(1,0,0,1,-122.24000000000001,-76.4)"></rect></mask><mask id="55d977c7-8a0f-4486-9899-37a0f63c64bb"><rect width="640" height="400" fill="white"></rect><rect width="232.0384" height="40.19706137672743" fill="black" x="203.9808" y="179.90146931163628" id="transform-me" transform="matrix(1,0,0,1,-122.24000000000001,-76.4)"></rect></mask><mask id="cb79db0a-a89a-4e16-b047-915121233145"><rect width="640" height="400" fill="white"></rect><rect width="174.02880000000002" height="30.14779603254558" fill="black" x="232.98559999999998" y="184.92610198372722" id="transform-me" transform="matrix(1,0,0,1,-122.24000000000001,-76.4)"></rect></mask><mask id="a41a773d-e806-4d57-8672-e2a1d2fd71d9"><rect width="640" height="400" fill="white"></rect><rect width="435.072" height="75.36949008136394" fill="black" x="102.464" y="162.31525495931803" id="transform-me" transform="matrix(1,0,0,1,-122.24000000000001,-76.4)"></rect></mask><mask id="1202e415-777c-4230-9386-798e8903e77d"><rect width="640" height="400" fill="white"></rect><rect width="348.05760000000004" height="60.29559206509116" fill="black" x="145.97119999999998" y="169.85220396745441" id="transform-me" transform="matrix(1,0,0,1,-122.24000000000001,-76.4)"></rect></mask><mask id="993c2180-2d58-40e3-84a0-99ebd7f5e79e"><rect width="640" height="400" fill="white"></rect><rect width="232.0384" height="40.19706137672743" fill="black" x="203.9808" y="179.90146931163628" id="transform-me" transform="matrix(1,0,0,1,-122.24000000000001,-76.4)"></rect></mask><mask id="22203962-a184-4a03-8696-d4975e919b4c"><rect width="640" height="400" fill="white"></rect><rect width="348.05760000000004" height="60.29559206509116" fill="black" x="145.97119999999998" y="169.85220396745441" id="transform-me" transform="matrix(1,0,0,1,-122.24000000000001,-76.4)"></rect></mask></defs></svg><rect width="395.52" height="247.2" fill="none" stroke="none" visibility="hidden"></rect></g></svg></g></svg>