<svg xmlns="http://www.w3.org/2000/svg" version="1.1" xmlns:xlink="http://www.w3.org/1999/xlink" xmlns:svgjs="http://svgjs.dev/svgjs" width="1000" height="1000" viewBox="0 0 1000 1000"><rect width="1000" height="1000" fill="#102e44"></rect><g transform="matrix(0.7,0,0,0.7,149.5757654746443,396.32128989858484)"><svg viewBox="0 0 396 117" data-background-color="#102e44" preserveAspectRatio="xMidYMid meet" height="295" width="1000" xmlns="http://www.w3.org/2000/svg" xmlns:xlink="http://www.w3.org/1999/xlink"><g id="tight-bounds" transform="matrix(1,0,0,1,0.2399955314869544,0.24290112283568988)"><svg viewBox="0 0 395.52 116.51419775432863" height="116.51419775432863" width="395.52"><g><svg viewBox="0 0 395.52 116.51419775432863" height="116.51419775432863" width="395.52"><g><svg viewBox="0 0 606.5589137621614 178.683063379185" height="116.51419775432863" width="395.52"><g><rect width="7.46138900388576" height="178.683063379185" x="184.04509281093078" y="0" fill="#ffffff" opacity="1" stroke-width="0" stroke="transparent" fill-opacity="1" class="rect-o-0" data-fill-palette-color="primary" rx="1%" id="o-0" data-palette-color="#ffffff"></rect></g><g transform="matrix(1,0,0,1,211.03891376216146,0.4444852322865245)"><svg viewBox="0 0 395.5199999999999 177.79409291461195" height="177.79409291461195" width="395.5199999999999"><g id="textblocktransform"><svg viewBox="0 0 395.5199999999999 177.79409291461195" height="177.79409291461195" width="395.5199999999999" id="textblock"><g><svg viewBox="0 0 395.5199999999999 177.79409291461195" height="177.79409291461195" width="395.5199999999999"><g transform="matrix(1,0,0,1,0,0)"><svg width="395.5199999999999" viewBox="0.5999994277954102 -39.599998474121094 192.64999389648438 83.5999984741211" height="177.79409291461195" data-palette-color="#ffffff"><svg></svg><svg></svg><g class="undefined-text-0" data-fill-palette-color="primary" id="text-0"><path xmlns="http://www.w3.org/2000/svg" d="M13.65 0.7c-2.567 0-5-0.293-7.3-0.88-2.3-0.58-4.217-1.387-5.75-2.42v0-8.8h10v0.5c0 1.8 0.867 2.7 2.6 2.7v0c0.9 0 1.577-0.243 2.03-0.73 0.447-0.48 0.67-1.237 0.67-2.27v0-19.5h-4.5v-8.2h21v8.2h-2.5v16.8c0 4.9-1.433 8.557-4.3 10.97-2.867 2.42-6.85 3.63-11.95 3.63zM68.05 0h-33.75v-8.2h2.5v-22.5h-2.5v-8.2h33.75v15.1h-11.2v-6.9h-6.05v7.9h4.4v5.7h-4.4v8.9h6.05v-7.9h11.2zM85.45 0.7c-3.2 0-6.223-0.277-9.07-0.83-2.853-0.547-5.047-1.17-6.58-1.87v0-9.9h11c0 1.033 0.233 1.783 0.7 2.25 0.467 0.467 1.317 0.7 2.55 0.7v0c1.033 0 1.777-0.16 2.23-0.48 0.447-0.313 0.67-0.787 0.67-1.42v0c0-0.533-0.217-0.993-0.65-1.38-0.433-0.38-1.183-0.77-2.25-1.17v0l-4.3-1.5c-3.7-1.4-6.357-3.05-7.97-4.95-1.62-1.9-2.43-4.467-2.43-7.7v0c0-3.933 1.293-6.923 3.88-8.97 2.58-2.053 6.887-3.08 12.92-3.08v0c2.9 0 5.627 0.29 8.18 0.87 2.547 0.587 4.603 1.363 6.17 2.33v0 8.95h-10c0-1.667-1.033-2.5-3.1-2.5v0c-1 0-1.707 0.123-2.12 0.37-0.42 0.253-0.63 0.697-0.63 1.33v0c0 0.567 0.243 1.017 0.73 1.35 0.48 0.333 1.27 0.683 2.37 1.05v0l4.35 1.5c3.533 1.2 6.11 2.757 7.73 4.67 1.613 1.92 2.42 4.43 2.42 7.53v0c0 4.233-1.423 7.433-4.27 9.6-2.853 2.167-7.03 3.25-12.53 3.25zM119.15 0.7c-3.2 0-6.223-0.277-9.07-0.83-2.853-0.547-5.047-1.17-6.58-1.87v0-9.9h11c0 1.033 0.233 1.783 0.7 2.25 0.467 0.467 1.317 0.7 2.55 0.7v0c1.033 0 1.777-0.16 2.23-0.48 0.447-0.313 0.67-0.787 0.67-1.42v0c0-0.533-0.217-0.993-0.65-1.38-0.433-0.38-1.183-0.77-2.25-1.17v0l-4.3-1.5c-3.7-1.4-6.357-3.05-7.97-4.95-1.62-1.9-2.43-4.467-2.43-7.7v0c0-3.933 1.293-6.923 3.88-8.97 2.58-2.053 6.887-3.08 12.92-3.08v0c2.9 0 5.627 0.29 8.18 0.87 2.547 0.587 4.603 1.363 6.17 2.33v0 8.95h-10c0-1.667-1.033-2.5-3.1-2.5v0c-1 0-1.707 0.123-2.12 0.37-0.42 0.253-0.63 0.697-0.63 1.33v0c0 0.567 0.243 1.017 0.73 1.35 0.48 0.333 1.27 0.683 2.37 1.05v0l4.35 1.5c3.533 1.2 6.11 2.757 7.73 4.67 1.613 1.92 2.42 4.43 2.42 7.53v0c0 4.233-1.423 7.433-4.27 9.6-2.853 2.167-7.03 3.25-12.53 3.25zM171.1 0h-33.75v-8.2h2.5v-22.5h-2.5v-8.2h33.75v15.1h-11.2v-6.9h-6.05v7.9h4.4v5.7h-4.4v8.9h6.05v-7.9h11.2z" fill="#ffffff" fill-rule="nonzero" stroke="none" stroke-width="1" stroke-linecap="butt" stroke-linejoin="miter" stroke-miterlimit="10" stroke-dasharray="" stroke-dashoffset="0" font-family="none" font-weight="none" font-size="none" text-anchor="none" style="mix-blend-mode: normal" data-fill-palette-color="primary" opacity="1"></path><path xmlns="http://www.w3.org/2000/svg" d="M43.75 12.6v-8.2h16v8.2h-2l-7.45 30.7h-14.95l-4.55-21.6h-0.5l-4.8 21.6h-14.95l-7.95-30.7h-2v-8.2h18.5v8.2h-1.9l1.95 12.75h0.5l4.75-20.95h14.4l4.4 20.95h0.5l1.95-12.75zM83.6 4.4l8.45 30.7h2v8.2h-19.6v-8.2h3l-0.8-4h-6.8l-0.8 4h3v8.2h-17.1v-8.2h2l8.45-30.7zM73 15.85l-2.05 9.95h4.6l-2.05-9.95zM126.6 43.3h-30.95v-8.2h2.5v-22.5h-2.5v-8.2h21.1v8.2h-4.6v22.5h4.5v-4.6h9.95zM159.25 43.3h-30.95v-8.2h2.5v-22.5h-2.5v-8.2h21.1v8.2h-4.6v22.5h4.5v-4.6h9.95zM176.45 44c-3.2 0-6.223-0.277-9.07-0.83-2.853-0.547-5.047-1.17-6.58-1.87v0-9.9h11c0 1.033 0.233 1.783 0.7 2.25 0.467 0.467 1.317 0.7 2.55 0.7v0c1.033 0 1.777-0.16 2.23-0.48 0.447-0.313 0.67-0.787 0.67-1.42v0c0-0.533-0.217-0.993-0.65-1.38-0.433-0.38-1.183-0.77-2.25-1.17v0l-4.3-1.5c-3.7-1.4-6.357-3.05-7.97-4.95-1.62-1.9-2.43-4.467-2.43-7.7v0c0-3.933 1.293-6.923 3.88-8.97 2.58-2.053 6.887-3.08 12.92-3.08v0c2.9 0 5.627 0.29 8.18 0.87 2.547 0.587 4.603 1.363 6.17 2.33v0 8.95h-10c0-1.667-1.033-2.5-3.1-2.5v0c-1 0-1.707 0.123-2.12 0.37-0.42 0.253-0.63 0.697-0.63 1.33v0c0 0.567 0.243 1.017 0.73 1.35 0.48 0.333 1.27 0.683 2.37 1.05v0l4.35 1.5c3.533 1.2 6.11 2.757 7.73 4.67 1.613 1.92 2.42 4.43 2.42 7.53v0c0 4.233-1.423 7.433-4.27 9.6-2.853 2.167-7.03 3.25-12.53 3.25z" fill="#ffffff" fill-rule="nonzero" stroke="none" stroke-width="1" stroke-linecap="butt" stroke-linejoin="miter" stroke-miterlimit="10" stroke-dasharray="" stroke-dashoffset="0" font-family="none" font-weight="none" font-size="none" text-anchor="none" style="mix-blend-mode: normal" data-fill-palette-color="primary" opacity="1"></path></g></svg></g></svg></g></svg></g></svg></g><g transform="matrix(1,0,0,1,0,22.66874684661302)"><svg viewBox="0 0 164.51266086358586 133.34556968595896" height="133.34556968595896" width="164.51266086358586"><g><svg xmlns:x="http://ns.adobe.com/Extensibility/1.0/" xmlns:i="http://ns.adobe.com/AdobeIllustrator/10.0/" xmlns:graph="http://ns.adobe.com/Graphs/1.0/" xmlns="http://www.w3.org/2000/svg" xmlns:xlink="http://www.w3.org/1999/xlink" version="1.1" x="0" y="0" viewBox="3.5 12.300000190734863 92.89999389648438 75.29999542236328" enable-background="new 0 0 100 100" xml:space="preserve" height="133.34556968595896" width="164.51266086358586" class="icon-icon-0" data-fill-palette-color="accent" id="icon-0"><path d="M10.7 87.6h78.5c4 0 7.2-3.2 7.2-7.2V19.5c0-4-3.2-7.2-7.2-7.2H10.7c-4 0-7.2 3.2-7.2 7.2v60.9C3.6 84.4 6.8 87.6 10.7 87.6zM89.3 82.6H10.7c-1.2 0-2.2-1-2.2-2.2V34.9h82.9v45.5C91.4 81.7 90.5 82.6 89.3 82.6zM10.7 17.4h78.5c1.2 0 2.2 1 2.2 2.2v10.4H8.6V19.5C8.6 18.3 9.5 17.4 10.7 17.4zM21.9 23.6c0-1.7 1.4-3 3-3s3 1.4 3 3c0 1.7-1.4 3-3 3S21.9 25.3 21.9 23.6zM31.9 23.6c0-1.7 1.4-3 3-3s3 1.4 3 3c0 1.7-1.4 3-3 3S31.9 25.3 31.9 23.6zM11.9 23.6c0-1.7 1.4-3 3-3 1.7 0 3 1.4 3 3 0 1.7-1.4 3-3 3C13.3 26.7 11.9 25.3 11.9 23.6zM85.4 74.7c0 1.4-1.1 2.5-2.5 2.5H17.1c-1.4 0-2.5-1.1-2.5-2.5s1.1-2.5 2.5-2.5h65.8C84.3 72.2 85.4 73.4 85.4 74.7zM85.4 64.2c0 1.4-1.1 2.5-2.5 2.5H34.4c-1.4 0-2.5-1.1-2.5-2.5s1.1-2.5 2.5-2.5h48.5C84.3 61.7 85.4 62.8 85.4 64.2zM85.4 53.7c0 1.4-1.1 2.5-2.5 2.5H17.1c-1.4 0-2.5-1.1-2.5-2.5s1.1-2.5 2.5-2.5h65.8C84.3 51.2 85.4 52.3 85.4 53.7zM85.4 43.1c0 1.4-1.1 2.5-2.5 2.5H50c-1.4 0-2.5-1.1-2.5-2.5s1.1-2.5 2.5-2.5h32.9C84.3 40.6 85.4 41.7 85.4 43.1z" fill="#b2fcfb" data-fill-palette-color="accent"></path></svg></g></svg></g></svg></g></svg></g><defs></defs></svg><rect width="395.52" height="116.51419775432863" fill="none" stroke="none" visibility="hidden"></rect></g></svg></g></svg>